<svg xmlns="http://www.w3.org/2000/svg" xmlns:svg="http://www.w3.org/2000/svg" id="svg3199" width="24" height="22" version="1.1"><defs id="defs3201"><linearGradient id="linearGradient14219" x1="-93.031" x2="-93.031" y1="-396.35" y2="-388.73" gradientTransform="matrix(1.5918 0 0 .85714 -256.56 59.685)" gradientUnits="userSpaceOnUse"><stop id="stop15406" offset="0" style="stop-color:#515151"/><stop id="stop15408" offset="1" style="stop-color:#292929"/></linearGradient></defs><metadata id="metadata3204"/><path style="fill:#fff;fill-opacity:1;stroke:none" id="rect3770-7" d="M 10,1 C 4.46,1 0,5.46 0,11 c 0,5.54 4.46,10 10,10 5.54,0 10,-4.46 10,-10 0,-1.558125 -0.0037,-1.354863 -0.35,-1.9270833 0,0 -0.495246,-0.4049527 -1,-0.2 C 18.084437,9.1025607 18.016667,9.75625 18.016667,9.75625 18.017474,10.33553 18,9.9982466 18,11 c 0,4.432 -3.568,8 -8,8 -4.432,0 -8,-3.568 -8,-8 0,-4.432 3.568,-8 8,-8 1.340847,0 2.595527,0.3325389 3.696248,0.9167771 1.100721,0.5842382 0.894743,0.8247316 1.605836,1.0603062 0.337157,0.1116952 0.805633,0.087009 1.052083,-0.16875 0.225742,-0.2342697 0.279754,-0.6860495 0.11875,-0.96875 C 15.306893,1.792217 13.237748,1 10,1 z"/><rect style="fill:#fff;fill-opacity:1;stroke:none" id="rect2987-3-6-9" width="18" height="2" x="-3.656" y="16.142" rx="1" ry="1" transform="matrix(0.70710678,-0.70710678,0.70710678,0.70710678,0,0)"/><rect style="fill:#fff;fill-opacity:1;stroke:none" id="rect3757-5-4-6" width="2" height="8" x="-3.656" y="10.142" rx="1" ry="1" transform="matrix(0.70710678,-0.70710678,0.70710678,0.70710678,0,0)"/><path style="fill:#fff;fill-opacity:.2;stroke:none" id="path3912" d="m 8,6.7555909 a 5.5,5.2444091 0 1 1 -11,0 5.5,5.2444091 0 1 1 11,0 z" transform="matrix(1.6218888,0,0,1.700933,6.4657844,-0.49080752)"/></svg>