<svg xmlns="http://www.w3.org/2000/svg" xmlns:svg="http://www.w3.org/2000/svg" id="svg3163" width="32" height="32" version="1.1"><defs id="defs3165"><marker id="Arrow1Lstart" orient="auto" refX="0" refY="0" style="overflow:visible"><path id="path4038" d="M 0.0,0.0 L 5.0,-5.0 L -12.5,0.0 L 5.0,5.0 L 0.0,0.0 z" transform="scale(0.8) translate(12.5,0)" style="fill-rule:evenodd;stroke:#000;stroke-width:1pt"/></marker></defs><metadata id="metadata3168"/><g id="layer1" transform="translate(0,-1020.3622)"><path style="color:#000;fill:none;stroke:#000;stroke-width:6;stroke-miterlimit:4;stroke-opacity:.2;stroke-dasharray:none;marker:none;visibility:visible;display:inline;overflow:visible;enable-background:accumulate" id="rect3762-5-5" d="m 6.8125,1024.7622 c -0.255619,0 -0.522881,0.085 -0.71875,0.2813 l -1.40625,1.4062 c -0.391737,0.3917 -0.391737,1.0145 0,1.4063 l 8.5,8.5 -8.5,8.5 c -0.391737,0.3917 -0.391737,1.0145 0,1.4062 l 1.40625,1.4063 c 0.391737,0.3917 1.014513,0.3917 1.40625,0 l 8.5,-8.5 8.5,8.5 c 0.391737,0.3917 1.014513,0.3917 1.40625,0 l 1.40625,-1.4063 c 0.391737,-0.3917 0.391737,-1.0145 0,-1.4062 l -8.5,-8.5 8.5,-8.5 c 0.391737,-0.3918 0.391737,-1.0146 0,-1.4063 l -1.40625,-1.4062 c -0.195869,-0.1959 -0.463131,-0.2813 -0.71875,-0.2813 -0.255619,0 -0.491631,0.085 -0.6875,0.2813 l -8.5,8.5 -8.5,-8.5 c -0.195869,-0.1959 -0.431881,-0.2813 -0.6875,-0.2813 z"/><path style="color:#000;fill:none;stroke:#000;stroke-width:4;stroke-miterlimit:4;stroke-opacity:.2;stroke-dasharray:none;marker:none;visibility:visible;display:inline;overflow:visible;enable-background:accumulate" id="rect3762-5-6" d="m 6.8125,1024.7622 c -0.255619,0 -0.522881,0.085 -0.71875,0.2813 l -1.40625,1.4062 c -0.391737,0.3917 -0.391737,1.0145 0,1.4063 l 8.5,8.5 -8.5,8.5 c -0.391737,0.3917 -0.391737,1.0145 0,1.4062 l 1.40625,1.4063 c 0.391737,0.3917 1.014513,0.3917 1.40625,0 l 8.5,-8.5 8.5,8.5 c 0.391737,0.3917 1.014513,0.3917 1.40625,0 l 1.40625,-1.4063 c 0.391737,-0.3917 0.391737,-1.0145 0,-1.4062 l -8.5,-8.5 8.5,-8.5 c 0.391737,-0.3918 0.391737,-1.0146 0,-1.4063 l -1.40625,-1.4062 c -0.195869,-0.1959 -0.463131,-0.2813 -0.71875,-0.2813 -0.255619,0 -0.491631,0.085 -0.6875,0.2813 l -8.5,8.5 -8.5,-8.5 c -0.195869,-0.1959 -0.431881,-0.2813 -0.6875,-0.2813 z"/><path style="color:#000;fill:none;stroke:#000;stroke-width:2;stroke-miterlimit:4;stroke-opacity:.2;stroke-dasharray:none;marker:none;visibility:visible;display:inline;overflow:visible;enable-background:accumulate" id="rect3762-5" d="m 6.8125,1024.7622 c -0.2556191,0 -0.5228814,0.085 -0.71875,0.2813 l -1.40625,1.4062 c -0.391737,0.3917 -0.391737,1.0145 0,1.4063 l 8.5,8.5 -8.5,8.5 c -0.391737,0.3917 -0.391737,1.0145 0,1.4062 l 1.40625,1.4063 c 0.3917372,0.3917 1.0145128,0.3917 1.40625,0 l 8.5,-8.5 8.5,8.5 c 0.391737,0.3917 1.014513,0.3917 1.40625,0 l 1.40625,-1.4063 c 0.391737,-0.3917 0.391737,-1.0145 0,-1.4062 l -8.5,-8.5 8.5,-8.5 c 0.391737,-0.3918 0.391737,-1.0146 0,-1.4063 l -1.40625,-1.4062 c -0.195869,-0.1959 -0.463131,-0.2813 -0.71875,-0.2813 -0.255619,0 -0.491631,0.085 -0.6875,0.2813 l -8.5,8.5 -8.5,-8.5 c -0.1958686,-0.1959 -0.4318809,-0.2813 -0.6875,-0.2813 z"/><path style="color:#000;fill:#e6e6e6;fill-opacity:1;fill-rule:nonzero;stroke:none;stroke-width:4;marker:none;visibility:visible;display:inline;overflow:visible;enable-background:accumulate" id="rect3762" d="M 6.8125 4.40625 C 6.5568809 4.40625 6.2896186 4.4916314 6.09375 4.6875 L 4.6875 6.09375 C 4.2957628 6.4854872 4.2957628 7.1082628 4.6875 7.5 L 13.1875 16 L 4.6875 24.5 C 4.2957628 24.891737 4.2957628 25.514513 4.6875 25.90625 L 6.09375 27.3125 C 6.4854872 27.704237 7.1082628 27.704237 7.5 27.3125 L 16 18.8125 L 24.5 27.3125 C 24.891737 27.704237 25.514513 27.704237 25.90625 27.3125 L 27.3125 25.90625 C 27.704237 25.514513 27.704237 24.891737 27.3125 24.5 L 18.8125 16 L 27.3125 7.5 C 27.704237 7.1082628 27.704237 6.4854872 27.3125 6.09375 L 25.90625 4.6875 C 25.710381 4.4916314 25.443119 4.40625 25.1875 4.40625 C 24.931881 4.40625 24.695869 4.4916314 24.5 4.6875 L 16 13.1875 L 7.5 4.6875 C 7.3041314 4.4916314 7.0681191 4.40625 6.8125 4.40625 z" transform="translate(0,1020.3622)"/></g></svg>