<svg xmlns="http://www.w3.org/2000/svg" xmlns:svg="http://www.w3.org/2000/svg" id="svg3163" width="16" height="16" version="1.1"><defs id="defs3165"><marker id="Arrow1Lstart" orient="auto" refX="0" refY="0" style="overflow:visible"><path id="path4038" d="M 0,0 5,-5 -12.5,0 5,5 0,0 z" transform="matrix(0.8,0,0,0.8,10,0)" style="fill-rule:evenodd;stroke:#000;stroke-width:1pt"/></marker></defs><metadata id="metadata3168"/><g id="layer1" transform="translate(0,-1036.3622)"><path style="fill:#000;fill-opacity:.4;stroke:none" id="rect3779" d="m 4.9296875,1039.7997 c 0,0.8284 -0.6715729,1.5 -1.5,1.5 l 1.5,0 0,-1.5 z"/><path style="color:#000;fill:none;stroke:#000;stroke-width:3.68326544999999994;stroke-miterlimit:4;stroke-opacity:.40000001;stroke-dasharray:none;marker:none;visibility:visible;display:inline;overflow:visible;enable-background:accumulate" id="rect3777-93-4-1" d="m 8.0000002,1038.2409 c -0.6821171,0 -1.2312582,0.5461 -1.2312582,1.2243 l 0,3.6728 -3.6937749,0 c -0.682117,0 -1.2312582,0.5459 -1.2312582,1.2242 0,0.6783 0.5491412,1.2243 1.2312582,1.2243 l 3.6937749,0 0,3.6728 c 0,0.6782 0.5491411,1.2243 1.2312582,1.2243 0.6821169,0 1.2312589,-0.5461 1.2312589,-1.2243 l 0,-3.6728 3.6937749,0 c 0.682116,0 1.231257,-0.546 1.231257,-1.2243 0,-0.6783 -0.549141,-1.2242 -1.231257,-1.2242 l -3.6937749,0 0,-3.6728 c 0,-0.6782 -0.549142,-1.2243 -1.2312589,-1.2243 z"/><path style="color:#000;fill:none;stroke:#000;stroke-width:2.45551038000000021;stroke-miterlimit:4;stroke-opacity:.40000001;stroke-dasharray:none;marker:none;visibility:visible;display:inline;overflow:visible;enable-background:accumulate" id="rect3777-93-4" d="m 8.0000002,1038.2409 c -0.6821171,0 -1.2312582,0.5461 -1.2312582,1.2243 l 0,3.6728 -3.693775,0 c -0.682117,0 -1.2312582,0.5459 -1.2312582,1.2242 0,0.6783 0.5491412,1.2243 1.2312582,1.2243 l 3.693775,0 0,3.6728 c 0,0.6782 0.5491411,1.2243 1.2312582,1.2243 0.6821171,0 1.2312591,-0.5461 1.2312591,-1.2243 l 0,-3.6728 3.6937747,0 c 0.682116,0 1.231257,-0.546 1.231257,-1.2243 0,-0.6783 -0.549141,-1.2242 -1.231257,-1.2242 l -3.6937747,0 0,-3.6728 c 0,-0.6782 -0.549142,-1.2243 -1.2312591,-1.2243 z"/><path style="color:#000;fill:none;stroke:#000;stroke-width:1.22775519000000011;stroke-miterlimit:4;stroke-opacity:.40000001;stroke-dasharray:none;marker:none;visibility:visible;display:inline;overflow:visible;enable-background:accumulate" id="rect3777-93" d="m 8.0000002,1038.2409 c -0.6821171,0 -1.2312582,0.5461 -1.2312582,1.2243 l 0,3.6728 -3.693775,0 c -0.682117,0 -1.2312582,0.5459 -1.2312582,1.2242 0,0.6783 0.5491412,1.2243 1.2312582,1.2243 l 3.693775,0 0,3.6728 c 0,0.6782 0.5491411,1.2243 1.2312582,1.2243 0.6821171,0 1.2312591,-0.5461 1.2312591,-1.2243 l 0,-3.6728 3.6937747,0 c 0.682116,0 1.231257,-0.546 1.231257,-1.2243 0,-0.6783 -0.549141,-1.2242 -1.231257,-1.2242 l -3.6937747,0 0,-3.6728 c 0,-0.6782 -0.549142,-1.2243 -1.2312591,-1.2243 z"/><path style="color:#000;fill:#e6e6e6;fill-opacity:1;fill-rule:nonzero;stroke:none;stroke-width:0;marker:none;visibility:visible;display:inline;overflow:visible;enable-background:accumulate" id="rect3777" d="m 8.0000002,1038.2409 c -0.6821171,0 -1.2312582,0.5461 -1.2312582,1.2243 l 0,3.6728 -3.693775,0 c -0.682117,0 -1.2312582,0.5459 -1.2312582,1.2242 0,0.6783 0.5491412,1.2243 1.2312582,1.2243 l 3.693775,0 0,3.6728 c 0,0.6782 0.5491411,1.2243 1.2312582,1.2243 0.682117,0 1.231259,-0.5461 1.231259,-1.2243 l 0,-3.6728 3.6937748,0 c 0.682116,0 1.231257,-0.546 1.231257,-1.2243 0,-0.6783 -0.549141,-1.2242 -1.231257,-1.2242 l -3.6937748,0 0,-3.6728 c 0,-0.6782 -0.549142,-1.2243 -1.231259,-1.2243 z"/><path style="fill:#000;fill-opacity:.4;stroke:none" id="rect3779-9" d="m 11.070313,1039.7996 c 0,0.8284 0.671573,1.5 1.5,1.5 l -1.5,0 0,-1.5 z"/><path style="fill:#000;fill-opacity:.4;stroke:none" id="rect3779-5" d="m 4.9283471,1048.9262 c 0,-0.8284 -0.6715729,-1.5 -1.5,-1.5 l 1.5,0 0,1.5 z"/><path style="fill:#000;fill-opacity:.4;stroke:none" id="rect3779-8" d="m 11.070396,1048.9239 c 0,-0.8284 0.671572,-1.5 1.5,-1.5 l -1.5,0 0,1.5 z"/><path style="fill:#000;fill-opacity:.4;stroke:none" id="rect3779-5-9" d="m 5.5416282,1048.3129 c 0,-0.8284 -0.6715729,-1.5 -1.5,-1.5 l 1.5,0 0,1.5 z"/><path style="fill:#000;fill-opacity:.4;stroke:none" id="rect3779-5-8" d="m 6.1549096,1047.7004 c 0,-0.8284 -0.6715729,-1.5 -1.5,-1.5 l 1.5,0 0,1.5 z"/><path style="fill:#000;fill-opacity:.4;stroke:none" id="rect3779-5-9-7" d="m 5.5416282,1040.4114 c 0,0.8284 -0.6715729,1.5 -1.5,1.5 l 1.5,0 0,-1.5 z"/><path style="fill:#000;fill-opacity:.4;stroke:none" id="rect3779-5-8-0" d="m 6.1549096,1041.0239 c 0,0.8284 -0.6715729,1.5 -1.5,1.5 l 1.5,0 0,-1.5 z"/><path style="fill:#000;fill-opacity:.4;stroke:none" id="rect3779-5-9-3" d="m 10.458281,1048.3132 c 0,-0.8284 0.671573,-1.5 1.5,-1.5 l -1.5,0 0,1.5 z"/><path style="fill:#000;fill-opacity:.4;stroke:none" id="rect3779-5-8-6" d="m 9.845,1047.7007 c 0,-0.8284 0.671572,-1.5 1.499999,-1.5 l -1.499999,0 0,1.5 z"/><path style="fill:#000;fill-opacity:.4;stroke:none" id="rect3779-5-9-76" d="m 10.458282,1040.4107 c 0,0.8284 0.671573,1.5 1.5,1.5 l -1.5,0 0,-1.5 z"/><path style="fill:#000;fill-opacity:.4;stroke:none" id="rect3779-5-8-2" d="m 9.845,1041.0232 c 0,0.8284 0.671573,1.5 1.5,1.5 l -1.5,0 0,-1.5 z"/></g></svg>